<?xml version="1.0" encoding="UTF-8"?>
<svg version="1.1" xmlns="http://www.w3.org/2000/svg" width="225" height="225">
<path d="M0 0 C74.25 0 148.5 0 225 0 C225 74.25 225 148.5 225 225 C150.75 225 76.5 225 0 225 C0 150.75 0 76.5 0 0 Z " fill="#1A1A1A" transform="translate(0,0)"/>
<path d="M0 0 C74.25 0 148.5 0 225 0 C225 74.25 225 148.5 225 225 C150.75 225 76.5 225 0 225 C0 150.75 0 76.5 0 0 Z M44 33 C43.34128906 33.515625 42.68257812 34.03125 42.00390625 34.5625 C22.02056726 50.64567022 10.71818099 76.98217888 8 102 C7.3491111 114.94588496 7.53172489 127.44814722 11 140 C11.26683594 140.99515625 11.53367187 141.9903125 11.80859375 143.015625 C15.94280845 156.75959209 22.89994913 168.97649255 32 180 C32.61230469 180.77601563 33.22460938 181.55203125 33.85546875 182.3515625 C50.71535873 202.69846597 76.1814781 214.00654819 102 217 C114.93737793 217.66082825 127.46410937 217.49082862 140 214 C141.82337891 213.50693359 141.82337891 213.50693359 143.68359375 213.00390625 C157.72004851 208.78274556 169.96612339 201.61208852 181 192 C181.65871094 191.484375 182.31742188 190.96875 182.99609375 190.4375 C202.36728329 174.8470054 214.09955241 149.2520388 217 125 C219.41307783 93.88907659 211.23409785 66.75694797 191.3125 42.8125 C174.01328283 22.80620636 148.57548238 9.80033919 122.17382812 7.78417969 C93.06603233 6.42555524 66.22339793 13.64023411 44 33 Z " fill="#000000" transform="translate(0,0)"/>
<path d="M0 0 C0.66 0 1.32 0 2 0 C3.97828718 21.68299523 5.44453622 43.22581973 6 65 C-12.81 65 -31.62 65 -51 65 C-48.16650615 60.04138576 -45.62807821 56.11101332 -41.9375 51.9375 C-38.06559202 47.46237175 -34.3147588 42.92565361 -30.6875 38.25 C-25.97679834 32.18973216 -21.12213943 26.25966002 -16.21850586 20.35473633 C-11.81349896 15.03473561 -7.53258521 9.62916845 -3.375 4.11328125 C-2.29492927 2.70652246 -1.15316348 1.34749288 0 0 Z " fill="#F7F7F7" transform="translate(139,58)"/>
<path d="M0 0 C11.83669815 1.68113389 23.56519088 3.91795916 35.3125 6.125 C37.3248343 6.50149184 39.33720384 6.87779538 41.34960938 7.25390625 C46.23348168 8.16710161 51.11687079 9.08283979 56 10 C56.495 11.485 56.495 11.485 57 13 C55.55944306 15.18716818 54.10379629 17.11904426 52.4375 19.125 C51.95023438 19.72521973 51.46296875 20.32543945 50.9609375 20.94384766 C49.89345961 22.25578869 48.8214486 23.56405064 47.74560547 24.86914062 C45.89324369 27.13031735 44.07240941 29.41465053 42.25390625 31.703125 C41.00335745 33.26102164 39.75206685 34.81832314 38.5 36.375 C37.9011499 37.13055176 37.3022998 37.88610352 36.68530273 38.66455078 C36.11884033 39.3604834 35.55237793 40.05641602 34.96875 40.7734375 C34.46794922 41.39653809 33.96714844 42.01963867 33.45117188 42.66162109 C32 44 32 44 29 44 C27.25384906 41.78717864 25.71814298 39.60709592 24.1875 37.25 C23.21216091 35.78824545 22.23553435 34.32734937 21.2578125 32.8671875 C20.73606445 32.08311523 20.21431641 31.29904297 19.67675781 30.49121094 C16.70361352 26.07391851 13.62792052 21.72851723 10.5625 17.375 C8.36825937 14.25464799 6.17973169 11.13050435 4 8 C3.57187012 7.3905957 3.14374023 6.78119141 2.70263672 6.15332031 C0 2.23277753 0 2.23277753 0 0 Z " fill="#F6F6F6" transform="translate(55,76)"/>
<path d="M0 0 C0.11622939 3.74973906 0.1872595 7.49901464 0.25 11.25 C0.30027344 12.84521484 0.30027344 12.84521484 0.3515625 14.47265625 C0.36445312 15.49746094 0.37734375 16.52226562 0.390625 17.578125 C0.41157227 18.52075195 0.43251953 19.46337891 0.45410156 20.43457031 C-0.13368583 23.75525307 -1.43205069 24.89287283 -4 27 C-7.12706959 28.5635348 -10.57982443 28.39958487 -14 28 C-14.99 27.34 -15.98 26.68 -17 26 C-16.67 24.68 -16.34 23.36 -16 22 C-13.03 22 -10.06 22 -7 22 C-8.15568119 20.62231356 -8.15568119 20.62231356 -11.3125 20.8125 C-15 20 -15 20 -17.4375 17.4375 C-19.30554278 13.32780588 -19.93906251 10.42324769 -19 6 C-15.17505177 -2.23835004 -8.13554652 -0.59447837 0 0 Z " fill="#EBEBEB" transform="translate(112,139)"/>
<path d="M0 0 C1.98 0 3.96 0 6 0 C6.33 2.97 6.66 5.94 7 9 C8.093125 8.938125 9.18625 8.87625 10.3125 8.8125 C14 9 14 9 15.7121582 10.26098633 C17.27556408 12.37210293 17.35164149 13.41056041 17.29296875 16.01171875 C17.28330078 16.76904297 17.27363281 17.52636719 17.26367188 18.30664062 C17.23853516 19.09232422 17.21339844 19.87800781 17.1875 20.6875 C17.16719727 21.88342773 17.16719727 21.88342773 17.14648438 23.10351562 C17.11117089 25.06929967 17.05736447 27.03473582 17 29 C15.35 29 13.7 29 12 29 C11.67 24.38 11.34 19.76 11 15 C9.35 14.67 7.7 14.34 6 14 C6 18.95 6 23.9 6 29 C4.02 29 2.04 29 0 29 C0 19.43 0 9.86 0 0 Z " fill="#F0F0F0" transform="translate(113,130)"/>
<path d="M0 0 C2.9375 2.0625 2.9375 2.0625 5 5 C5.3125 8.8125 5.3125 8.8125 5 12 C1.04 12 -2.92 12 -7 12 C-6.01 13.485 -6.01 13.485 -5 15 C-2.58380177 15.25030977 -2.58380177 15.25030977 0 15 C1.32 15 2.64 15 4 15 C4.33 15.99 4.66 16.98 5 18 C0.75758844 20.82827437 -3.02303157 20.8876122 -8 20 C-10.8367179 18.29294852 -11.34742379 17.08480892 -13 14 C-13.91506578 9.77091223 -13.4917442 6.77039925 -11.125 3.0625 C-7.53138797 -0.42541756 -4.95990361 -0.50439698 0 0 Z " fill="#F1F1F1" transform="translate(80,139)"/>
<path d="M0 0 C2.31 0 4.62 0 7 0 C7.99 2.64 8.98 5.28 10 8 C10.99 5.36 11.98 2.72 13 0 C14.98 0 16.96 0 19 0 C12.84229027 24.53071355 12.84229027 24.53071355 8 28 C4.8125 28.1875 4.8125 28.1875 2 28 C2 26.35 2 24.7 2 23 C3.32 23 4.64 23 6 23 C4.91932453 16.44485009 3.21494978 10.44279068 0.8046875 4.25 C0 2 0 2 0 0 Z " fill="#EEEEEE" transform="translate(166,139)"/>
<path d="M0 0 C0 1.65 0 3.3 0 5 C-1.32 5 -2.64 5 -4 5 C-4 6.32 -4 7.64 -4 9 C-2.68 9 -1.36 9 0 9 C0 10.32 0 11.64 0 13 C-1.32 13 -2.64 13 -4 13 C-4 18.61 -4 24.22 -4 30 C-5.98 30 -7.96 30 -10 30 C-10 24.39 -10 18.78 -10 13 C-10.99 13 -11.98 13 -13 13 C-13 11.68 -13 10.36 -13 9 C-12.01 9 -11.02 9 -10 9 C-9.9175 8.071875 -9.835 7.14375 -9.75 6.1875 C-9 3 -9 3 -7.25 1.125 C-4.63695229 -0.18152386 -2.88466476 -0.24038873 0 0 Z " fill="#F0F0F0" transform="translate(165,130)"/>
<path d="M0 0 C0 1.65 0 3.3 0 5 C-0.639375 5.103125 -1.27875 5.20625 -1.9375 5.3125 C-2.618125 5.539375 -3.29875 5.76625 -4 6 C-4.33 6.99 -4.66 7.98 -5 9 C-3.68 9 -2.36 9 -1 9 C-1 10.32 -1 11.64 -1 13 C-2.32 13 -3.64 13 -5 13 C-5 18.28 -5 23.56 -5 29 C-6.98 29 -8.96 29 -11 29 C-11 23.72 -11 18.44 -11 13 C-11.99 13 -12.98 13 -14 13 C-14 11.68 -14 10.36 -14 9 C-13.01 9 -12.02 9 -11 9 C-10.9175 8.071875 -10.835 7.14375 -10.75 6.1875 C-10 3 -10 3 -8.3125 1.125 C-5.40422845 -0.28983481 -3.19384754 -0.21776233 0 0 Z " fill="#EDEDED" transform="translate(54,130)"/>
<path d="M0 0 C1.98 0 3.96 0 6 0 C6 1.65 6 3.3 6 5 C6.99 5 7.98 5 9 5 C9 6.32 9 7.64 9 9 C8.01 9 7.02 9 6 9 C6.33 12.63 6.66 16.26 7 20 C7.99 20.33 8.98 20.66 10 21 C10 22.32 10 23.64 10 25 C3.84765625 25.09765625 3.84765625 25.09765625 2 25 C1 24 1 24 0.90234375 20.62109375 C0.90901631 19.22652923 0.92097468 17.83198257 0.9375 16.4375 C0.94201172 15.72658203 0.94652344 15.01566406 0.95117188 14.28320312 C0.96299136 12.52209987 0.98092737 10.76103964 1 9 C0.01 9 -0.98 9 -2 9 C-2 7.68 -2 6.36 -2 5 C-1.34 5 -0.68 5 0 5 C0 3.35 0 1.7 0 0 Z " fill="#F1F1F1" transform="translate(134,134)"/>
<path d="M0 0 C1.51400391 0.01740234 1.51400391 0.01740234 3.05859375 0.03515625 C4.07050781 0.04417969 5.08242188 0.05320313 6.125 0.0625 C7.29869141 0.07990234 7.29869141 0.07990234 8.49609375 0.09765625 C8.49609375 2.07765625 8.49609375 4.05765625 8.49609375 6.09765625 C6.84609375 6.42765625 5.19609375 6.75765625 3.49609375 7.09765625 C3.16609375 11.38765625 2.83609375 15.67765625 2.49609375 20.09765625 C0.51609375 20.09765625 -1.46390625 20.09765625 -3.50390625 20.09765625 C-3.53279139 16.95184202 -3.55066548 13.80606156 -3.56640625 10.66015625 C-3.57478516 9.76232422 -3.58316406 8.86449219 -3.59179688 7.93945312 C-3.59501953 7.08544922 -3.59824219 6.23144531 -3.6015625 5.3515625 C-3.60941772 4.16542358 -3.60941772 4.16542358 -3.61743164 2.95532227 C-3.4390318 0.03608708 -2.92971854 0.11426359 0 0 Z " fill="#E5E5E5" transform="translate(57.50390625,138.90234375)"/>
<path d="M0 0 C1.65 0 3.3 0 5 0 C5 6.6 5 13.2 5 20 C3.35 20 1.7 20 0 20 C0 13.4 0 6.8 0 0 Z " fill="#F8F8F8" transform="translate(145,139)"/>
<path d="M0 0 C1.65 0 3.3 0 5 0 C5 6.6 5 13.2 5 20 C3.35 20 1.7 20 0 20 C0 13.4 0 6.8 0 0 Z " fill="#F8F8F8" transform="translate(87,139)"/>
<path d="M0 0 C1.32 0.33 2.64 0.66 4 1 C4.33 2.32 4.66 3.64 5 5 C4.02804688 5.32613281 3.05609375 5.65226563 2.0546875 5.98828125 C-1.41319298 7.75910308 -1.41319298 7.75910308 -1.8046875 11.79296875 C-1.85768559 13.25704106 -1.88011798 14.7224777 -1.875 16.1875 C-1.895625 16.93708984 -1.91625 17.68667969 -1.9375 18.45898438 C-1.98454518 20.30550787 -1.99574887 22.15288219 -2 24 C-3.32 23.67 -4.64 23.34 -6 23 C-6 19.37 -6 15.74 -6 12 C-5.01 12 -4.02 12 -3 12 C-3 10.68 -3 9.36 -3 8 C-3.66 8 -4.32 8 -5 8 C-4.67 6.68 -4.34 5.36 -4 4 C-3.01 4.33 -2.02 4.66 -1 5 C-0.67 3.35 -0.34 1.7 0 0 Z " fill="#242424" transform="translate(146,131)"/>
<path d="M0 0 C2.625 0.375 2.625 0.375 5 1 C5 3.97 5 6.94 5 10 C2.625 10.625 2.625 10.625 0 11 C-2 9 -2 9 -2.25 5.5 C-2 2 -2 2 0 0 Z " fill="#131313" transform="translate(101,144)"/>
<path d="M0 0 C1.32 0 2.64 0 4 0 C4.22731216 6.93302093 3.42002108 13.2168636 2 20 C1.34 19.67 0.68 19.34 0 19 C0 12.73 0 6.46 0 0 Z " fill="#E9E9E9" transform="translate(146,95)"/>
<path d="M0 0 C3.96 0 7.92 0 12 0 C10.68 0.33 9.36 0.66 8 1 C7.67 1.99 7.34 2.98 7 4 C5.35 4 3.7 4 2 4 C1.34 2.68 0.68 1.36 0 0 Z " fill="#2F2F2F" transform="translate(73,151)"/>
<path d="M0 0 C2.0625 0.4375 2.0625 0.4375 4 1 C4.33 2.32 4.66 3.64 5 5 C3.35 5.33 1.7 5.66 0 6 C-0.38218767 4.34385343 -0.71395102 2.67542976 -1 1 C-0.67 0.67 -0.34 0.34 0 0 Z " fill="#E9E9E9" transform="translate(146,131)"/>
<path d="M0 0 C2.0625 0.4375 2.0625 0.4375 4 1 C3.67 2.65 3.34 4.3 3 6 C1.35 5.67 -0.3 5.34 -2 5 C-1.125 1.125 -1.125 1.125 0 0 Z " fill="#E8E8E8" transform="translate(88,131)"/>
<path d="M0 0 C0.33 0 0.66 0 1 0 C1 4.29 1 8.58 1 13 C-0.65 11.68 -2.3 10.36 -4 9 C-2.68 9 -1.36 9 0 9 C0 6.03 0 3.06 0 0 Z " fill="#040404" transform="translate(85,143)"/>
<path d="M0 0 C1.65 0 3.3 0 5 0 C5.33 0.99 5.66 1.98 6 3 C3.69 3 1.38 3 -1 3 C-0.67 2.01 -0.34 1.02 0 0 Z " fill="#181818" transform="translate(74,144)"/>
<path d="M0 0 C0.99 0 1.98 0 3 0 C2.67 2.97 2.34 5.94 2 9 C1.34 8.67 0.68 8.34 0 8 C0 5.36 0 2.72 0 0 Z " fill="#D5D5D5" transform="translate(146,106)"/>
</svg>
